# xmcd
#
# Track frame offsets:
#	150
#	12250
#	25605
#	41790
#	56545
#	73555
#	87617
#	99770
#	115090
#	131445
#
# Disc length: 1975 seconds
# Revision: 3
# Processed by: cddbd v1.5.2PL0 Copyright (c) Steve Scherf et al.
# Submitted via: dBpowerAMP V12.0
#
DISCID=7807b50a
DTITLE=Rob Crosby - Starting Now
DYEAR=1995
DGENRE=Country
TTITLE0=A Woman Like That
TTITLE1=Fallin' In And Crawlin' Out
TTITLE2=Not A Day Goes By
TTITLE3=The Trouble With Love
TTITLE4=Lady's Man
TTITLE5=Gettin' Out Of Dodge
TTITLE6=One Step Ahead Of The Storm
TTITLE7=Learning As She Goes
TTITLE8=I've Got Just The Heart
TTITLE9=Starting Now
EXTD=
EXTT0=
EXTT1=
EXTT2=
EXTT3=
EXTT4=
EXTT5=
EXTT6=
EXTT7=
EXTT8=
EXTT9=
PLAYORDER=
